<svg width="154" height="32" viewBox="0 0 154 32" fill="none" xmlns="http://www.w3.org/2000/svg">
<path d="M51.3463 10.436V23H48.8263V14.828L45.4603 23H43.5523L40.1683 14.828V23H37.6483V10.436H40.5103L44.5063 19.778L48.5023 10.436H51.3463ZM58.2657 23.162C57.3057 23.162 56.4417 22.952 55.6737 22.532C54.9057 22.1 54.2997 21.494 53.8557 20.714C53.4237 19.934 53.2077 19.034 53.2077 18.014C53.2077 16.994 53.4297 16.094 53.8737 15.314C54.3297 14.534 54.9477 13.934 55.7277 13.514C56.5077 13.082 57.3777 12.866 58.3377 12.866C59.2977 12.866 60.1677 13.082 60.9477 13.514C61.7277 13.934 62.3397 14.534 62.7837 15.314C63.2397 16.094 63.4677 16.994 63.4677 18.014C63.4677 19.034 63.2337 19.934 62.7657 20.714C62.3097 21.494 61.6857 22.1 60.8937 22.532C60.1137 22.952 59.2377 23.162 58.2657 23.162ZM58.2657 20.966C58.7217 20.966 59.1477 20.858 59.5437 20.642C59.9517 20.414 60.2757 20.078 60.5157 19.634C60.7557 19.19 60.8757 18.65 60.8757 18.014C60.8757 17.066 60.6237 16.34 60.1197 15.836C59.6277 15.32 59.0217 15.062 58.3017 15.062C57.5817 15.062 56.9757 15.32 56.4837 15.836C56.0037 16.34 55.7637 17.066 55.7637 18.014C55.7637 18.962 55.9977 19.694 56.4657 20.21C56.9457 20.714 57.5457 20.966 58.2657 20.966ZM64.6682 17.978C64.6682 16.97 64.8662 16.076 65.2622 15.296C65.6702 14.516 66.2222 13.916 66.9182 13.496C67.6142 13.076 68.3882 12.866 69.2402 12.866C69.8882 12.866 70.5062 13.01 71.0942 13.298C71.6822 13.574 72.1502 13.946 72.4982 14.414V9.68H75.0542V23H72.4982V21.524C72.1862 22.016 71.7482 22.412 71.1842 22.712C70.6202 23.012 69.9662 23.162 69.2222 23.162C68.3822 23.162 67.6142 22.946 66.9182 22.514C66.2222 22.082 65.6702 21.476 65.2622 20.696C64.8662 19.904 64.6682 18.998 64.6682 17.978ZM72.5162 18.014C72.5162 17.402 72.3962 16.88 72.1562 16.448C71.9162 16.004 71.5922 15.668 71.1842 15.44C70.7762 15.2 70.3382 15.08 69.8702 15.08C69.4022 15.08 68.9702 15.194 68.5742 15.422C68.1782 15.65 67.8542 15.986 67.6022 16.43C67.3622 16.862 67.2422 17.378 67.2422 17.978C67.2422 18.578 67.3622 19.106 67.6022 19.562C67.8542 20.006 68.1782 20.348 68.5742 20.588C68.9822 20.828 69.4142 20.948 69.8702 20.948C70.3382 20.948 70.7762 20.834 71.1842 20.606C71.5922 20.366 71.9162 20.03 72.1562 19.598C72.3962 19.154 72.5162 18.626 72.5162 18.014ZM86.7854 17.798C86.7854 18.158 86.7614 18.482 86.7134 18.77H79.4234C79.4834 19.49 79.7354 20.054 80.1794 20.462C80.6234 20.87 81.1694 21.074 81.8174 21.074C82.7534 21.074 83.4194 20.672 83.8154 19.868H86.5334C86.2454 20.828 85.6934 21.62 84.8774 22.244C84.0614 22.856 83.0594 23.162 81.8714 23.162C80.9114 23.162 80.0474 22.952 79.2794 22.532C78.5234 22.1 77.9294 21.494 77.4974 20.714C77.0774 19.934 76.8674 19.034 76.8674 18.014C76.8674 16.982 77.0774 16.076 77.4974 15.296C77.9174 14.516 78.5054 13.916 79.2614 13.496C80.0174 13.076 80.8874 12.866 81.8714 12.866C82.8194 12.866 83.6654 13.07 84.4094 13.478C85.1654 13.886 85.7474 14.468 86.1554 15.224C86.5754 15.968 86.7854 16.826 86.7854 17.798ZM84.1754 17.078C84.1634 16.43 83.9294 15.914 83.4734 15.53C83.0174 15.134 82.4594 14.936 81.7994 14.936C81.1754 14.936 80.6474 15.128 80.2154 15.512C79.7954 15.884 79.5374 16.406 79.4414 17.078H84.1754ZM91.1448 14.576C91.4688 14.048 91.8888 13.634 92.4048 13.334C92.9328 13.034 93.5328 12.884 94.2048 12.884V15.53H93.5388C92.7468 15.53 92.1468 15.716 91.7388 16.088C91.3428 16.46 91.1448 17.108 91.1448 18.032V23H88.6248V13.028H91.1448V14.576ZM101.428 12.884C102.616 12.884 103.576 13.262 104.308 14.018C105.04 14.762 105.406 15.806 105.406 17.15V23H102.886V17.492C102.886 16.7 102.688 16.094 102.292 15.674C101.896 15.242 101.356 15.026 100.672 15.026C99.9762 15.026 99.4242 15.242 99.0162 15.674C98.6202 16.094 98.4222 16.7 98.4222 17.492V23H95.9022V13.028H98.4222V14.27C98.7582 13.838 99.1842 13.502 99.7002 13.262C100.228 13.01 100.804 12.884 101.428 12.884Z" fill="white"/>
<path d="M114.931 16.556C115.639 16.688 116.221 17.042 116.677 17.618C117.133 18.194 117.361 18.854 117.361 19.598C117.361 20.27 117.193 20.864 116.857 21.38C116.533 21.884 116.059 22.28 115.435 22.568C114.811 22.856 114.073 23 113.221 23H107.803V10.436H112.987C113.839 10.436 114.571 10.574 115.183 10.85C115.807 11.126 116.275 11.51 116.587 12.002C116.911 12.494 117.073 13.052 117.073 13.676C117.073 14.408 116.875 15.02 116.479 15.512C116.095 16.004 115.579 16.352 114.931 16.556ZM110.323 15.62H112.627C113.227 15.62 113.689 15.488 114.013 15.224C114.337 14.948 114.499 14.558 114.499 14.054C114.499 13.55 114.337 13.16 114.013 12.884C113.689 12.608 113.227 12.47 112.627 12.47H110.323V15.62ZM112.861 20.948C113.473 20.948 113.947 20.804 114.283 20.516C114.631 20.228 114.805 19.82 114.805 19.292C114.805 18.752 114.625 18.332 114.265 18.032C113.905 17.72 113.419 17.564 112.807 17.564H110.323V20.948H112.861ZM118.721 17.978C118.721 16.97 118.919 16.076 119.315 15.296C119.723 14.516 120.269 13.916 120.953 13.496C121.649 13.076 122.423 12.866 123.275 12.866C124.019 12.866 124.667 13.016 125.219 13.316C125.783 13.616 126.233 13.994 126.569 14.45V13.028H129.107V23H126.569V21.542C126.245 22.01 125.795 22.4 125.219 22.712C124.655 23.012 124.001 23.162 123.257 23.162C122.417 23.162 121.649 22.946 120.953 22.514C120.269 22.082 119.723 21.476 119.315 20.696C118.919 19.904 118.721 18.998 118.721 17.978ZM126.569 18.014C126.569 17.402 126.449 16.88 126.209 16.448C125.969 16.004 125.645 15.668 125.237 15.44C124.829 15.2 124.391 15.08 123.923 15.08C123.455 15.08 123.023 15.194 122.627 15.422C122.231 15.65 121.907 15.986 121.655 16.43C121.415 16.862 121.295 17.378 121.295 17.978C121.295 18.578 121.415 19.106 121.655 19.562C121.907 20.006 122.231 20.348 122.627 20.588C123.035 20.828 123.467 20.948 123.923 20.948C124.391 20.948 124.829 20.834 125.237 20.606C125.645 20.366 125.969 20.03 126.209 19.598C126.449 19.154 126.569 18.626 126.569 18.014ZM137.094 12.884C138.282 12.884 139.242 13.262 139.974 14.018C140.706 14.762 141.072 15.806 141.072 17.15V23H138.552V17.492C138.552 16.7 138.354 16.094 137.958 15.674C137.562 15.242 137.022 15.026 136.338 15.026C135.642 15.026 135.09 15.242 134.682 15.674C134.286 16.094 134.088 16.7 134.088 17.492V23H131.568V13.028H134.088V14.27C134.424 13.838 134.85 13.502 135.366 13.262C135.894 13.01 136.47 12.884 137.094 12.884ZM149.373 23L145.989 18.752V23H143.469V9.68H145.989V17.258L149.337 13.028H152.613L148.221 18.032L152.649 23H149.373Z" fill="#5CE1E6"/>
<path d="M16.4062 0C13.2417 -3.77363e-08 10.1483 0.938383 7.51713 2.69649C4.88594 4.45459 2.83518 6.95345 1.62418 9.87706C0.413176 12.8007 0.096322 16.0177 0.713685 19.1214C1.33105 22.2251 2.8549 25.0761 5.09254 27.3137C7.33018 29.5513 10.1811 31.0752 13.2848 31.6926C16.3885 32.3099 19.6056 31.9931 22.5292 30.7821C25.4528 29.5711 27.9517 27.5203 29.7098 24.8891C31.4679 22.2579 32.4062 19.1645 32.4062 16L24.4062 16C24.4062 17.5823 23.9371 19.129 23.058 20.4446C22.179 21.7602 20.9295 22.7855 19.4677 23.391C18.0059 23.9965 16.3974 24.155 14.8455 23.8463C13.2937 23.5376 11.8682 22.7757 10.7494 21.6569C9.63057 20.538 8.86865 19.1126 8.55997 17.5607C8.25129 16.0089 8.40971 14.4003 9.01521 12.9385C9.62072 11.4767 10.6461 10.2273 11.9617 9.34824C13.2773 8.46919 14.824 8 16.4062 8V0Z" fill="white"/>
<path d="M16.4062 0C14.3051 -2.5056e-08 12.2245 0.413852 10.2833 1.21793C8.3421 2.022 6.57828 3.20055 5.09254 4.68629C3.6068 6.17203 2.42825 7.93586 1.62418 9.87707C0.820102 11.8183 0.40625 13.8989 0.40625 16H8.40625C8.40625 14.9494 8.61318 13.9091 9.01521 12.9385C9.41725 11.9679 10.0065 11.086 10.7494 10.3431C11.4923 9.60028 12.3742 9.011 13.3448 8.60896C14.3154 8.20693 15.3557 8 16.4062 8V0Z" fill="#5CE1E6"/>
<circle cx="16.4062" cy="16" r="5" fill="#5CE1E6"/>
<path d="M21.4062 16C21.4062 15.3434 21.2769 14.6932 21.0256 14.0866C20.7744 13.48 20.4061 12.9288 19.9418 12.4645C19.4775 12.0002 18.9263 11.6319 18.3197 11.3806C17.713 11.1293 17.0629 11 16.4062 11C15.7496 11 15.0995 11.1293 14.4928 11.3806C13.8862 11.6319 13.335 12.0002 12.8707 12.4645C12.4064 12.9288 12.0381 13.48 11.7869 14.0866C11.5356 14.6932 11.4062 15.3434 11.4063 16L16.4062 16H21.4062Z" fill="white"/>
</svg>
